<svg xmlns="http://www.w3.org/2000/svg" viewBox="0 0 140 100" fill="none" stroke="#2C2420" stroke-linecap="round" stroke-linejoin="round">
  <!-- Corpo esterno del croissant: forma a mezzaluna -->
  <path stroke-width="2" d="M18,72 C10,60 10,42 18,28 C26,14 40,6 58,6 C76,6 92,14 104,28 C114,40 116,56 110,68 C106,76 98,80 90,76 C82,72 78,62 72,54 C66,46 58,42 50,44 C42,46 36,54 30,64 C26,70 22,76 18,72 Z"/>
  <!-- Strati interni visibili (sfoglia) -->
  <path stroke-width="1.3" d="M22,32 C34,18 52,10 70,10 C88,10 102,20 110,34"/>
  <path stroke-width="1.2" d="M20,42 C32,28 50,20 68,20 C86,20 100,30 108,44"/>
  <path stroke-width="1.1" d="M19,52 C30,38 48,30 66,30 C84,30 98,40 106,54"/>
  <path stroke-width="1" d="M20,62 C30,48 46,40 64,40 C80,40 93,50 102,62"/>
  <!-- Texture trattini sul dorso superiore -->
  <path stroke-width="0.9" d="M42,10 C44,16 46,22 46,28"/>
  <path stroke-width="0.9" d="M54,8 C56,14 58,20 57,26"/>
  <path stroke-width="0.9" d="M66,8 C68,14 69,20 68,26"/>
  <path stroke-width="0.9" d="M78,10 C79,16 80,22 79,28"/>
  <path stroke-width="0.9" d="M90,14 C90,20 90,26 89,30"/>
  <!-- Punta sinistra -->
  <path stroke-width="1.6" d="M18,72 C14,78 8,82 6,78 C8,74 12,70 16,68"/>
  <!-- Punta destra -->
  <path stroke-width="1.6" d="M110,68 C116,72 120,70 118,64 C114,62 110,64 108,68"/>
  <!-- Curva inferiore del corpo -->
  <path stroke-width="1.4" d="M30,66 C42,60 58,56 74,58 C88,60 100,68 108,72"/>
</svg>
